# xmcd
# 
# Track frame offsets:
#     150
#     13412
#     23746
#     50335
#     69011
#     92293
#     117900
#     132112
#     143041
#     153472
#     162212
#     174123
#     189226
#     205765
#     231085
#     242491
#     265565
#     281911
#     290963
#     301386
# 
# Disc length: 4167
# 
# Revision: 0
# Processed by: cddbd v1.5.2PL0 Copyright (c) Steve Scherf et al.
# Submitted via: fre:ac v1.0.17
# 
DISCID=08104514
DTITLE=Eric Clapton - Clapton is God CD1
DYEAR=2007
DGENRE=Blues
TTITLE0=You Can't Judge A Book (The Yardbirds)
TTITLE1=Let It rock You Can't judge a Book (The Yardbirds)
TTITLE2=I wish You would You Can't judge a Book (The Yardbirds)
TTITLE3=Who do You Love You Can't judge a Book (The Yardbirds)
TTITLE4=23 hours long You Can't judge a Book (Sonny Boy Williamson and The Yardbirds)
TTITLE5=Take It Easy Baby (Sonny Boy Williamson and The Yardbirds)
TTITLE6=Out On the water coast (Sonny Boy Williamson and The Yardbirds)
TTITLE7=Boom Boom (The Yardbirds)
TTITLE8=Honey In Your Hips (The Yardbirds)
TTITLE9=Talkin' Bout you (The Yardbirds)
TTITLE10=Baby What's Wrong (The Yardbirds)
TTITLE11=Highway 69 (Sonny Boy Williamson and The Yardbirds)
TTITLE12=My Little Cabin (Sonny Boy Williamson and The Yardbirds)
TTITLE13=Smokestack Lighnin' (The Yardbirds)
TTITLE14=Good Morning Little Schoolgirl (The Yardbirds)
TTITLE15=Five Long Years (The Yardbirds)
TTITLE16=Louise (The Yardbirds)
TTITLE17=I Ain't Got You (The Yardbirds)
TTITLE18=Putty In Your Hands (The Yardbirds)
TTITLE19=Got To Hurry (The Yardbirds)
EXTD=
EXTT0=
EXTT1=
EXTT2=
EXTT3=
EXTT4=
EXTT5=
EXTT6=
EXTT7=
EXTT8=
EXTT9=
EXTT10=
EXTT11=
EXTT12=
EXTT13=
EXTT14=
EXTT15=
EXTT16=
EXTT17=
EXTT18=
EXTT19=
PLAYORDER=
